<svg width="60" height="64" viewBox="0 0 60 64" fill="none" xmlns="http://www.w3.org/2000/svg">
<path d="M47.3936 38.7189C48.257 39.3504 49.0815 39.9203 50.0365 40.505C50.3731 40.7111 50.5177 40.9646 50.5915 41.3309C50.6509 41.6257 50.5989 41.932 50.4457 42.1907C48.3973 45.6435 46.1843 48.6898 43.5917 51.7556C43.3981 51.9724 43.1362 52.1165 42.8494 52.164C42.4638 52.2279 41.8638 51.9132 41.3267 51.5237C28.2232 43.1922 18.8929 28.9489 18.019 13.391C19.3337 12.8995 20.2697 11.632 20.2697 10.1459C20.2697 8.23312 18.7191 6.68253 16.8064 6.68253C14.8936 6.68253 13.343 8.23312 13.343 10.1459C13.343 11.1964 13.8108 12.1377 14.5494 12.7729C14.7759 13.0106 15.0435 13.2088 15.3417 13.3567C15.3417 29.4738 25.9856 45.9283 39.7909 54.1953C40.4062 54.5637 40.3839 55.1299 40.2357 55.5506C40.1731 55.728 40.0707 55.8887 39.9363 56.0202C39.184 56.7822 38.5634 57.3694 37.6611 58.2016C36.367 59.3709 35.0126 60.5402 33.6172 61.6394C32.7753 62.3 31.8106 63.0231 30.7777 63.7656C30.5706 63.9126 30.3242 63.9941 30.0702 63.9997C29.8163 64.0052 29.5665 63.9346 29.3531 63.7968C28.369 63.0933 27.3965 62.3721 26.463 61.6394C11.5933 49.9014 2.82709 32.729 0.732917 14.4179C0.732917 14.4179 0.504927 11.9623 0.405536 10.6917C0.353777 10.0305 0.697244 9.78433 1.22344 9.59197L5.12318 7.90275C5.66025 7.75356 5.9925 7.96147 6.06081 8.59L6.11589 9.10035C7.86189 30.3546 13.2464 41.9183 26.363 54.1953C26.3023 54.4527 26.2702 54.7211 26.2702 54.997C26.2702 56.9183 27.8276 58.4758 29.7489 58.4758C31.6702 58.4758 33.2277 56.9183 33.2277 54.997C33.2277 53.0758 31.6702 51.5183 29.7489 51.5183C29.107 51.5183 28.5057 51.6921 27.9895 51.9953C15.5927 40.0562 9.44455 24.5422 9.59707 7.29374C9.59872 7.10729 9.59863 6.90781 9.6015 6.68253C9.60413 6.47587 9.60687 6.26053 9.71984 6.09198C9.8496 5.89837 10.0318 5.7457 10.2451 5.65181L23.1052 0.0932435C23.7645 -0.152361 24.1789 0.0932916 24.1129 0.758555C24.1129 0.758555 24.1281 1.61151 23.9902 2.5433C21.5036 19.3368 26.4783 34.9383 37.9945 42.3926C37.9706 42.5574 37.9582 42.7259 37.9582 42.8974C37.9582 44.821 39.5176 46.3805 41.4413 46.3805C43.365 46.3805 44.9244 44.821 44.9244 42.8974C44.9244 40.9737 43.365 39.4143 41.4413 39.4143C40.6672 39.4143 39.952 39.6668 39.3738 40.094C31.1561 33.7948 25.9271 21.934 26.8525 10.8739C27.2234 7.74455 27.8863 5.23417 30.3711 3.19178C34.6566 -0.269383 39.7486 0.455954 43.7107 3.46108C43.7857 3.51978 43.9423 3.62387 44.1525 3.76355C44.2347 3.81815 44.3249 3.87744 44.4216 3.94092C45.4873 4.5545 47.1441 5.7292 47.6676 6.79934C48.4861 8.47146 48.7214 10.4152 48.5382 11.4968C48.3727 12.4775 47.7129 13.2611 47.1109 13.976C46.8884 14.2402 46.7773 14.5194 46.6702 14.7883C46.6133 14.9312 46.5576 15.0711 46.487 15.2043C46.5146 15.4399 46.4339 15.833 46.3485 16.2486C46.2575 16.6918 46.1611 17.1612 46.185 17.493C46.2115 17.8602 46.2142 18.2517 46.2169 18.6412C46.2206 19.175 46.2243 19.7055 46.2891 20.1662C46.3918 20.9221 46.1309 21.6035 45.4424 21.934C45.3334 21.8717 45.3035 21.7356 45.2746 21.6044C45.2578 21.5279 45.2413 21.453 45.2097 21.3955C43.603 18.4667 41.9592 13.0138 41.8231 11.3341C41.7246 10.1188 41.5287 9.40423 40.9995 8.4947C39.8859 6.58076 37.6523 5.77581 35.9981 6.03805C33.0151 6.51097 31.4071 9.02396 31.6381 12.36C31.6381 23.8241 37.8214 32.4951 47.3936 38.7189Z" fill="#101828"/>
<path d="M53.9531 8.60915C53.9876 8.15075 54.1763 7.72207 54.9122 7.89727L59.1291 9.72641C59.5006 9.89613 59.624 10.1839 59.5957 10.5409C58.8648 19.0596 57.3806 27.2015 53.8757 35.062L52.7455 37.3204C52.6917 37.435 52.6136 37.5365 52.5167 37.6179C52.4198 37.6994 52.3064 37.7588 52.1842 37.792C52.0639 37.8274 51.9372 37.8349 51.8136 37.814C51.69 37.793 51.5728 37.7442 51.4709 37.6711C39.6182 30.0051 35.3372 23.1603 34.6881 12.8094C34.5997 11.4009 34.7236 9.36915 36.6055 9.36915C38.2539 9.36915 38.6417 11.0093 38.8181 12.447C39.9419 21.6044 43.3104 25.6208 49.7782 30.5021C52.1536 23.9037 53.1421 17.4018 53.7977 10.4701C53.9059 9.32579 53.9427 8.77959 53.9531 8.60915Z" fill="#101828"/>
</svg>
